<svg xmlns="http://www.w3.org/2000/svg" xml:space="preserve" width="308.7612359841165" height="304.915625" data-id="lg_UgETVO8sOpYCQXZki7" data-version="1" viewBox="0 0 2000 430"><g data-padding="20">
<g transform="translate(352.955 78.751)scale(.63371)"><path fill="#d94e28" d="M1019.584 37.87a279.754 176.12 0 1 0 0 352.24 279.754 176.12 0 1 0 0-352.24"/>
<rect width="368.576" height="50.85" x="435.546" y="-172.495" fill="none" rx="0" ry="0" transform="translate(399.59 589.54)"/>
<path fill="#303030" d="m857.904 449.85 3.29 1.4q-1.26 2.7-3.47 4.36-2.2 1.67-5.8 1.67-1.8 0-3.81-.7-2-.7-3.71-2.59t-2.83-5.17q-1.13-3.29-1.13-8.42 0-5.04 1.08-8.32 1.08-3.29 2.77-5.18t3.71-2.63q2.03-.74 3.96-.74 1.76 0 3.17.45 1.42.45 2.5 1.19t1.87 1.73 1.28 2.07l-3.37 1.31q-.72-1.85-2.01-2.79-1.28-.95-3.44-.95-1.53 0-2.9.65-1.37.66-2.41 2.25-1.03 1.6-1.64 4.26-.61 2.65-.61 6.7 0 4.01.63 6.66.63 2.66 1.69 4.23 1.06 1.58 2.43 2.25 1.37.68 2.86.68 2.47 0 3.78-1.24 1.3-1.24 2.11-3.13m8.73-9.45q0-4.72.99-7.94t2.61-5.2 3.71-2.86q2.1-.87 4.35-.87t4.34.87q2.09.88 3.71 2.86t2.61 5.2.99 7.94q0 4.73-.99 7.94-.99 3.22-2.61 5.2t-3.73 2.86q-2.12.88-4.32.88-2.25 0-4.35-.88-2.09-.88-3.71-2.86t-2.61-5.2q-.99-3.21-.99-7.94m3.92 0q0 6.84 1.93 10.4 1.94 3.55 5.81 3.55t5.8-3.55q1.94-3.56 1.94-10.4t-1.94-10.39q-1.93-3.56-5.8-3.56t-5.81 3.56q-1.93 3.55-1.93 10.39m42.16-16.19h3.38v32.4h-4.95l-10.53-27.36v27.36h-3.47v-32.4h5.09l10.48 26.96Zm27.04 0h3.37v32.4h-4.95l-10.53-27.36v27.36h-3.46v-32.4h5.08l10.49 26.96Zm10.58 16.19q0-4.72.99-7.94t2.61-5.2 3.71-2.86q2.1-.87 4.35-.87t4.34.87q2.09.88 3.71 2.86t2.61 5.2.99 7.94q0 4.73-.99 7.94-.99 3.22-2.61 5.2t-3.73 2.86q-2.12.88-4.32.88-2.25 0-4.35-.88-2.09-.88-3.71-2.86t-2.61-5.2q-.99-3.21-.99-7.94m3.92 0q0 6.84 1.93 10.4 1.94 3.55 5.81 3.55t5.8-3.55q1.94-3.56 1.94-10.4t-1.94-10.39q-1.93-3.56-5.8-3.56t-5.81 3.56q-1.93 3.55-1.93 10.39m26.59-16.19h3.83v29.07h12.46v3.33h-16.29Zm21.24 0h3.83v29.07h12.46v3.33h-16.29Zm36.04 0h3.73l-9.09 19.44v12.96h-3.78v-12.96l-9.27-19.44h4.19l7.06 15.48Zm24.79 25.64 3.29 1.4q-1.26 2.7-3.47 4.36-2.2 1.67-5.8 1.67-1.8 0-3.81-.7-2-.7-3.71-2.59t-2.83-5.17q-1.13-3.29-1.13-8.42 0-5.04 1.08-8.32 1.08-3.29 2.77-5.18t3.71-2.63q2.03-.74 3.96-.74 1.76 0 3.17.45 1.42.45 2.5 1.19t1.87 1.73 1.28 2.07l-3.37 1.31q-.72-1.85-2.01-2.79-1.28-.95-3.44-.95-1.53 0-2.9.65-1.37.66-2.41 2.25-1.03 1.6-1.64 4.26-.61 2.65-.61 6.7 0 4.01.63 6.66.63 2.66 1.69 4.23 1.06 1.58 2.43 2.25 1.37.68 2.86.68 2.47 0 3.78-1.24 1.3-1.24 2.11-3.13m29.97 6.76h-4.54l-7.25-12.69h-4.72v12.69h-3.83v-32.4h6.75q5.27 0 8.24 2.41t2.97 7.58q0 1.85-.45 3.26-.45 1.42-1.22 2.5-.76 1.08-1.8 1.85-1.03.76-2.2 1.26Zm-13.63-29.47h-2.88V441h3.01q3.51 0 5.36-1.69 1.84-1.69 1.84-5.11t-1.66-5.24q-1.67-1.82-5.67-1.82m32.77 11.52v2.97h-10.58v11.92h11.93v3.06h-15.75v-32.4h15.75v3.06h-11.93v11.39Zm28.47 17.95h-4.05l-2.38-8.68h-11.34l-2.43 8.68h-3.78l9.67-32.4h4.68Zm-12.01-28.89-4.91 17.28h9.68Zm32.94-3.51v3.33h-7.92v29.07h-3.83v-29.07h-7.83v-3.33Zm19.36 14.45v2.97h-10.58v11.92h11.93v3.06h-15.75v-32.4h15.75v3.06h-11.93v11.39Zm16.82-12.16q-2.52 0-4.14 1.19t-1.62 3.76q0 1.17.31 2.07.32.9 1.06 1.62t1.96 1.37q1.21.65 3.01 1.33 1.76.67 3.33 1.48 1.58.81 2.77 1.98t1.89 2.84q.7 1.66.7 4.05 0 1.84-.75 3.51-.74 1.66-2.07 2.9-1.32 1.24-3.17 1.96-1.84.72-4.05.72-2.25 0-3.94-.57-1.68-.56-2.9-1.48-1.21-.92-2-2.09t-1.24-2.43l3.24-1.22q.32.9.83 1.76.52.85 1.33 1.5.81.66 1.96 1.06 1.15.41 2.77.41 1.08 0 2.16-.3 1.08-.29 1.95-.96.88-.68 1.42-1.8.54-1.13.54-2.75 0-1.71-.43-2.83-.42-1.13-1.35-1.98-.92-.86-2.4-1.53-1.49-.68-3.56-1.53-3.64-1.49-5.38-3.6-1.73-2.12-1.73-5.22 0-1.71.63-3.22t1.85-2.61q1.21-1.1 2.94-1.73 1.74-.63 3.99-.63 3.82 0 5.98 1.55t3.33 4.21l-3.33 1.17q-.76-1.89-2.11-2.93-1.35-1.03-3.78-1.03"/>
<path fill="none" stroke="#303030" stroke-width="2.5" d="M331.462-130.85a140.58 68 0 1 0 0 136 140.58 68 0 1 0 0-136Z" paint-order="stroke" transform="matrix(1.87 0 0 2.34 401.2 362.07)"/><rect width="82.663" height="38.42" x="578.502" y="-166.28" fill="none" rx="0" ry="0" transform="translate(199.85 361.02)"/><path fill="#303030" d="m779.704 220.6 2.35-1.08q.2.47.61 1t1.02.97 1.44.71q.84.27 1.86.27.74 0 1.49-.17t1.33-.54.95-.97q.37-.59.37-1.44t-.25-1.41q-.26-.57-.87-.99-.61-.43-1.63-.82t-2.55-.9q-2.45-.81-3.86-2.04-1.41-1.22-1.41-3.36 0-.96.44-1.86t1.28-1.59q.83-.7 2.04-1.11 1.2-.41 2.77-.41 2.34 0 3.99.99 1.65.98 2.54 2.62l-2.38.95q-.62-1.19-1.59-1.82-.96-.63-2.49-.63-.75 0-1.47.15-.71.16-1.25.48-.55.32-.89.82-.34.49-.34 1.2 0 .72.26 1.21.25.49.8.9.54.41 1.42.77.89.35 2.18.83 1.5.54 2.62 1.04 1.12.49 1.88 1.13.77.65 1.14 1.53.38.89.38 2.21 0 1.19-.5 2.18-.49.99-1.39 1.7t-2.18 1.12q-1.27.41-2.83.41-1.53 0-2.74-.37-1.21-.38-2.11-.97-.9-.6-1.51-1.31-.61-.72-.92-1.4m19.27-15.51h2.79v19.04h-2.79Zm19.97 0h2.55v19.04h-3.95l-7.04-15.91v15.91h-2.61v-19.04h4.01l7.04 15.74Zm20.53 14.52 2.31 1.26q-.85 1.63-2.53 2.7t-4.23 1.07q-1.33 0-2.76-.48-1.42-.47-2.61-1.61t-1.96-3.08q-.76-1.94-.76-4.86 0-2.86.78-4.79.78-1.94 1.99-3.1 1.2-1.15 2.67-1.65 1.46-.49 2.78-.49 2.38 0 3.91 1 1.53 1.01 2.42 2.43l-2.35 1.16q-.54-1.05-1.55-1.7-1-.65-2.43-.65-.91 0-1.87.36-.95.36-1.71 1.26-.77.9-1.26 2.4-.49 1.49-.49 3.77 0 2.24.49 3.74t1.26 2.4q.76.9 1.7 1.26.93.35 1.85.35 1.56 0 2.67-.73 1.1-.73 1.68-2.02m17.82-6.26v2.21h-7.75v6.29h8.73v2.28h-11.52v-19.04h11.52v2.28h-8.73v5.98Z"/>
<rect width="68.835" height="35.03" x="585.417" y="-164.585" fill="none" rx="0" ry="0" transform="translate(602.68 360.57)"/><path fill="#303030" d="m1193.184 206.18-2.36-.65q.78-2.26 2.39-3.54 1.61-1.27 4.06-1.27 1.21 0 2.28.33 1.07.32 1.87 1.01.81.68 1.27 1.75.47 1.07.47 2.56 0 .96-.22 1.86-.21.89-.7 1.84-.48.95-1.27 2.01-.79 1.07-1.9 2.38l-5.21 6.07h9.02v2.2h-11.78v-2.45l6.39-7.59q.83-1.02 1.44-1.83.6-.81.97-1.53.38-.73.55-1.43t.17-1.53q0-1.68-.81-2.67-.8-.99-2.66-.99-1.49 0-2.52.9-1.02.9-1.45 2.57m16.46 5.89q0 2.54.28 4.28.28 1.73.8 2.79.53 1.05 1.27 1.5.75.45 1.68.45t1.67-.45q.75-.45 1.27-1.5.53-1.06.81-2.79.28-1.74.28-4.28t-.28-4.28q-.28-1.73-.81-2.8-.52-1.07-1.27-1.54-.74-.46-1.67-.46t-1.68.46q-.74.47-1.27 1.54-.52 1.07-.8 2.8-.28 1.74-.28 4.28m10.6 0q0 3.01-.46 5.1-.47 2.09-1.32 3.39-.85 1.31-2.08 1.89-1.22.59-2.71.59t-2.71-.54q-1.23-.54-2.08-1.81t-1.32-3.38q-.46-2.11-.46-5.24 0-3.01.46-5.12.47-2.1 1.32-3.42t2.08-1.91q1.22-.59 2.71-.59t2.71.56q1.23.56 2.08 1.85.85 1.28 1.32 3.39.46 2.11.46 5.24m6.42-5.89-2.36-.65q.78-2.26 2.39-3.54 1.61-1.27 4.06-1.27 1.21 0 2.28.33 1.07.32 1.87 1.01.81.68 1.27 1.75.47 1.07.47 2.56 0 .96-.22 1.86-.21.89-.7 1.84-.48.95-1.27 2.01-.79 1.07-1.9 2.38l-5.21 6.07h9.02v2.2h-11.78v-2.45l6.39-7.59q.83-1.02 1.44-1.83.6-.81.97-1.53.38-.73.55-1.43t.17-1.53q0-1.68-.81-2.67-.8-.99-2.66-.99-1.49 0-2.52.9-1.02.9-1.45 2.57m26.22 16.56h-9.95v-2.14h4.13v-17.2l-4.25 2.6-1.15-1.76 5.21-3.2h2.63v19.56h3.38Z"/><path fill="#f7dcd4" d="m963.174 336.73-2.122-.447a5.585 5.585 0 0 1-3.016-7.26l100.53-245.74a5.61 5.61 0 0 1 10.388 4.244l-100.53 245.74a5.585 5.585 0 0 1-5.25 3.463m111.7-44.68a5.585 5.585 0 0 1-4.245-9.271l63.893-74.504-63.893-74.504a5.622 5.622 0 1 1 8.49-7.372l67.02 78.19a5.585 5.585 0 0 1 0 7.26l-67.02 78.19a5.59 5.59 0 0 1-4.245 2.011m-122.87 0a5.6 5.6 0 0 1-4.245-1.899l-67.02-78.19a5.585 5.585 0 0 1 0-7.372l67.02-78.19a5.622 5.622 0 0 1 8.49 7.372l-63.893 74.504 63.893 74.616a5.585 5.585 0 0 1-4.245 9.159"/><rect width="125.357" height="268.963" x="557.155" y="-281.551" fill="none" rx="0" ry="0" transform="translate(399.59 384.14)"/><path fill="#303030" stroke="#efefef" stroke-width="7.35" d="M1025.634 318.35q-30.71 0-43.2-27.85-12.5-27.85-12.5-68.55 0-21.9 5.71-42.13 5.72-20.23 18.45-33.44t32.25-13.21q15 0 26.3 9.28 11.31 9.29 17.38 24.16 6.07 14.88 6.07 31.06l-33.8 1.67q0-10.71-3.57-24.4-3.57-13.68-14.28-13.68-11.19 0-15.47 17.85-4.29 17.85-4.29 42.84 0 30.94 4.76 49.63 4.76 18.68 18.33 18.68 9.52 0 13.57-11.3 4.04-11.31 5.23-27.49l29.76 2.85q0 17.14-5.72 31.78-5.71 14.64-17.13 23.44-11.43 8.81-27.85 8.81Z"/>
</g><path fill="transparent" stroke="transparent" stroke-width=".654" d="M784.972 98.487h430.056v281.04H784.972z"/></g></svg>